<svg width="1056" height="1096" viewBox="0 0 1056 1096" fill="none" xmlns="http://www.w3.org/2000/svg">
<path d="M21.5758 11.78H15.5308C13.7948 16.027 9.76484 18.724 3.50284 20.088L2.13884 16.802C8.61784 15.531 11.5318 12.803 12.0278 9.455H3.78184V6.2H16.5228C16.5228 7.068 16.4608 7.905 16.3368 8.711H21.5758V5.115H25.6678V19.437H21.5758V17.298H15.2518V14.229H21.5758V11.78ZM10.9738 30.163H26.2568V33.387H6.88184V25.327H21.5758V23.715H6.85084V20.491H25.6678V28.365H10.9738V30.163ZM38.3674 11.284V12.679C38.3674 17.453 39.7624 22.258 43.8854 24.676L41.4984 27.652C38.9564 26.164 37.3444 23.684 36.4144 20.677C35.4224 23.932 33.7484 26.722 31.1754 28.334L28.7574 25.327C32.9114 22.692 34.3994 17.577 34.3994 12.679V11.284H29.8114V7.967H42.5214V11.284H38.3674ZM44.1644 14.849V5.58H47.9774V32.364H44.1644V18.166H40.5374V14.849H44.1644ZM49.9304 5.084H53.8054V33.635H49.9304V5.084ZM81.726 15.252L80.176 18.538C75.185 17.794 71.62 15.469 69.791 12.4C67.962 15.469 64.366 17.794 59.375 18.538L57.825 15.252C64.335 14.353 67.59 10.664 67.59 7.316V5.952H71.961V7.316C71.961 10.633 75.247 14.353 81.726 15.252ZM82.656 20.646V23.963H71.713V33.697H67.621V23.963H56.864V20.646H82.656ZM100.502 16.957L100.905 20.181C97.4016 20.956 94.1466 21.111 87.8226 21.111H85.4356V7.378H98.2076V10.633H89.4966V17.825C94.5806 17.794 97.4016 17.608 100.502 16.957ZM92.5036 23.591V29.915H107.849V33.17H88.4116V23.591H92.5036ZM106.826 12.896H110.608V16.244H106.826V25.761H102.734V5.115H106.826V12.896Z" fill="#252525"/>
<rect y="68" width="1056" height="1028" rx="20" fill="white"/>
<path d="M48.0003 140.333C55.3641 140.333 61.3337 134.364 61.3337 127C61.3337 119.636 55.3641 113.667 48.0003 113.667C40.6365 113.667 34.667 119.636 34.667 127C34.667 134.364 40.6365 140.333 48.0003 140.333Z" stroke="#A2A2A2" stroke-width="2" stroke-linecap="round" stroke-linejoin="round"/>
<path d="M91.7168 117.91V137H87.8936L80.1416 125.794H80.0098V137H75.5273V117.91H79.4033L87.0762 129.116H87.2344V117.91H91.7168ZM114.052 115.326V139.531H110.413V115.326H114.052ZM92.5361 131.041H94.3555V120.995H92.9844V117.989H104.032V120.995H102.661V130.685C103.268 130.632 103.848 130.566 104.401 130.487L104.639 133.203C100.829 134.06 95.9375 134.139 92.958 134.126L92.5361 131.041ZM97.7305 130.988L99.207 130.922V120.995H97.7305V130.988ZM103.531 127.402V124.001H105.535V115.774H109.121V138.424H105.535V127.402H103.531ZM135.464 115.326V139.584H131.641V115.326H135.464ZM115.768 125.636C115.768 120.336 118.523 116.974 122.254 116.987C125.932 116.974 128.674 120.336 128.688 125.636C128.674 131.015 125.932 134.363 122.254 134.363C118.523 134.363 115.768 131.015 115.768 125.636ZM119.459 125.636C119.433 129.156 120.553 130.909 122.254 130.909C123.902 130.909 125.009 129.156 125.022 125.636C125.009 122.182 123.902 120.402 122.254 120.415C120.553 120.402 119.433 122.182 119.459 125.636ZM155.138 117.409V123.553H159.277V115.326H163.021V139.584H159.277V126.585H155.138V133.704H143.378V117.409H155.138ZM147.148 130.751H151.42V120.336H147.148V130.751ZM185.304 115.326V139.531H181.533V115.326H185.304ZM166.056 133.625V117.62H169.826V130.421C172.951 130.342 176.352 130.039 179.74 129.38L180.215 132.518C175.983 133.388 171.922 133.638 168.244 133.625H166.056ZM214.285 126.875V129.828H205.109V131.318C209.262 131.634 211.648 133.058 211.648 135.392C211.648 138.081 208.524 139.558 203.211 139.531C197.858 139.558 194.694 138.081 194.694 135.392C194.694 133.045 197.12 131.634 201.312 131.318V129.828H192.216V126.875H214.285ZM193.033 123.395C198.122 123.104 200.297 121.799 200.891 120.415H194.272V117.436H201.312V115.458H205.109V117.436H212.176V120.415H205.518C206.111 121.799 208.3 123.104 213.389 123.395L212.255 126.269C207.693 125.979 204.714 124.739 203.198 122.907C201.682 124.739 198.702 125.979 194.167 126.269L193.033 123.395ZM198.57 135.392C198.544 136.367 199.994 136.763 203.211 136.763C206.335 136.763 207.838 136.367 207.852 135.392C207.838 134.429 206.335 134.034 203.211 134.047C199.994 134.034 198.544 134.429 198.57 135.392ZM235.038 115.353V132.992H231.268V124.528H227.629V121.47H231.268V115.353H235.038ZM214.34 127.35C218.466 126.097 220.022 122.959 220.035 119.967V119.914H215.395V116.882H228.525V119.914H223.911V119.993C223.911 122.722 225.414 125.702 229.343 126.954L227.497 129.96C224.847 129.116 223.067 127.455 222.026 125.372C220.958 127.679 219.099 129.512 216.291 130.408L214.34 127.35ZM218.822 139.136V131.463H222.619V136.104H235.592V139.136H218.822ZM257.373 115.326V127.455H253.603V125.794H248.382V122.92H253.603V121.074H248.606C247.116 124.634 243.754 126.875 238.415 127.982L237.149 124.924C242.542 123.909 244.849 121.799 245.271 119.202H238.547V116.196H249.489C249.489 116.908 249.45 117.581 249.357 118.227H253.603V115.326H257.373ZM241.157 131.199V128.246H257.373V135.102H244.98V136.288H257.821V139.294H241.21V132.307H253.576V131.199H241.157ZM280.209 115.326V139.531H276.623V115.326H280.209ZM258.667 132.254C262.279 130.013 263.4 125.688 263.387 121.681V120.705H259.643V117.673H270.479V120.705H267.052V121.681C267.039 125.649 268.093 129.67 271.692 131.727L269.504 134.495C267.408 133.282 266.063 131.278 265.259 128.866C264.441 131.502 263.057 133.744 260.935 135.049L258.667 132.254ZM268.792 126.532V123.5H271.692V115.669H275.226V138.45H271.692V126.532H268.792Z" fill="black"/>
<rect x="292" y="110" width="84" height="34" rx="17" fill="url(#paint0_linear_487_2536)"/>
<path d="M304.96 135V132.858H307.822V124.434H305.41V122.796C306.742 122.544 307.66 122.202 308.506 121.68H310.468V132.858H312.97V135H304.96ZM317.9 129.87C315.992 129.87 314.66 128.304 314.66 125.622C314.66 122.958 315.992 121.428 317.9 121.428C319.808 121.428 321.158 122.958 321.158 125.622C321.158 128.304 319.808 129.87 317.9 129.87ZM317.9 128.376C318.674 128.376 319.286 127.584 319.286 125.622C319.286 123.66 318.674 122.922 317.9 122.922C317.126 122.922 316.532 123.66 316.532 125.622C316.532 127.584 317.126 128.376 317.9 128.376ZM318.35 135.252L325.586 121.428H327.152L319.898 135.252H318.35ZM327.584 135.252C325.694 135.252 324.344 133.668 324.344 131.004C324.344 128.322 325.694 126.792 327.584 126.792C329.474 126.792 330.842 128.322 330.842 131.004C330.842 133.668 329.474 135.252 327.584 135.252ZM327.584 133.74C328.358 133.74 328.97 132.966 328.97 131.004C328.97 129.042 328.358 128.286 327.584 128.286C326.81 128.286 326.198 129.042 326.198 131.004C326.198 132.966 326.81 133.74 327.584 133.74ZM342.162 127.53L341.01 129.384C339.192 128.79 337.95 127.602 337.248 126.126C336.51 127.746 335.214 129.078 333.288 129.708L332.082 127.836C334.746 126.936 335.952 124.83 335.988 122.778H332.73V120.888H341.64V122.778H338.418C338.454 124.668 339.606 126.666 342.162 127.53ZM334.728 132.462V130.572H346.032V136.566H343.656V132.462H334.728ZM343.656 119.988H346.032V129.834H343.656V125.838H341.208V123.93H343.656V119.988ZM358.739 126.576L359.009 128.466C356.543 128.88 354.329 128.934 351.035 128.934H349.577V123.894H354.851V122.616H349.559V120.726H357.191V125.658H351.917V127.026C354.653 127.008 356.579 126.936 358.739 126.576ZM360.143 134.46V133.128H353.825V134.46H360.143ZM360.143 131.31V129.906H362.501V136.35H351.467V129.906H353.825V131.31H360.143ZM360.107 119.97H362.501V129.222H360.107V119.97Z" fill="white"/>
<line x1="32" y1="185.5" x2="1024" y2="185.5" stroke="#A2A2A2"/>
<path d="M48.0003 257.333C55.3641 257.333 61.3337 251.364 61.3337 244C61.3337 236.636 55.3641 230.667 48.0003 230.667C40.6365 230.667 34.667 236.636 34.667 244C34.667 251.364 40.6365 257.333 48.0003 257.333Z" stroke="#A2A2A2" stroke-width="2" stroke-linecap="round" stroke-linejoin="round"/>
<path d="M96.1499 232.326V256.531H92.5903V232.326H96.1499ZM74.6343 248.885C79.4067 246.063 81.437 242.794 81.8853 238.18H76.1372V235.147H85.6558C85.6558 236.347 85.5898 237.494 85.458 238.602H87.4751V232.854H91.061V255.503H87.4751V247.672H84.3901V244.613H87.4751V241.66H84.8647C83.7573 245.615 81.3447 248.898 76.8491 251.548L74.6343 248.885ZM111.366 234.172V237.257H106.712C106.976 239.485 108.531 241.687 112.104 242.688L110.311 245.615C107.648 244.903 105.842 243.414 104.774 241.502C103.719 243.625 101.86 245.286 99.0786 246.09L97.1802 243.163C100.885 242.082 102.493 239.696 102.757 237.257H98.103V234.172H111.366ZM97.1802 249.017C98.8809 249.017 100.819 249.017 102.849 248.977V245.035H106.646V248.845C108.399 248.753 110.166 248.608 111.814 248.384L112.078 251.1C107.028 252.088 101.676 252.049 97.6548 252.075L97.1802 249.017ZM113.027 256.531V232.326H116.824V241.713H119.909V244.877H116.824V256.531H113.027ZM144.091 232.326V238.918H147.229V242.029H144.091V249.544H140.242V232.326H144.091ZM124.606 244.35C129.879 242.926 132.727 240.315 133.281 237.204H125.661V234.119H137.473C137.473 240.764 133.518 245.325 126.162 247.329L124.606 244.35ZM128.166 256.136V247.777H132.015V253.104H144.83V256.136H128.166ZM167.639 232.326V250.098H163.869V244.455H161.153V241.37H163.869V239.498H161.153V236.466H163.869V232.326H167.639ZM147.125 244.323L149.525 244.31V237.02H147.732V233.987H160.625V237.02H158.78V243.994C159.492 243.928 160.19 243.875 160.863 243.796L160.995 246.564C156.539 247.29 151.305 247.408 147.521 247.408L147.125 244.323ZM151.397 256.136V248.806H155.22V253.104H168.193V256.136H151.397ZM153.19 244.257L155.167 244.191V237.02H153.19V244.257ZM189.974 232.326V244.455H186.204V242.794H180.983V239.92H186.204V238.074H181.207C179.717 241.634 176.355 243.875 171.016 244.982L169.75 241.924C175.143 240.909 177.45 238.799 177.872 236.202H171.148V233.196H182.09C182.09 233.908 182.051 234.581 181.958 235.227H186.204V232.326H189.974ZM173.758 248.199V245.246H189.974V252.102H177.582V253.288H190.422V256.294H173.811V249.307H186.177V248.199H173.758ZM212.81 232.326V256.531H209.224V232.326H212.81ZM191.268 249.254C194.88 247.013 196.001 242.688 195.988 238.681V237.705H192.244V234.673H203.081V237.705H199.653V238.681C199.64 242.649 200.694 246.67 204.293 248.727L202.105 251.495C200.009 250.282 198.664 248.278 197.86 245.866C197.042 248.502 195.658 250.744 193.536 252.049L191.268 249.254ZM201.393 243.532V240.5H204.293V232.669H207.827V255.45H204.293V243.532H201.393Z" fill="black"/>
<line x1="32" y1="301.5" x2="1024" y2="301.5" stroke="#A2A2A2"/>
<path d="M57.3337 360C57.3337 365.155 53.155 369.333 48.0003 369.333C42.8457 369.333 38.667 365.155 38.667 360C38.667 354.845 42.8457 350.667 48.0003 350.667C53.155 350.667 57.3337 354.845 57.3337 360Z" stroke="#00C914" stroke-width="8" stroke-linecap="round" stroke-linejoin="round"/>
<path d="M87.7388 350.594C87.7388 358.201 86.1172 364.357 76.9546 368.972L74.8979 366.124C78.7476 364.199 81.0415 362.103 82.373 359.625L75.6099 360.244L75.188 357.001L83.52 356.54C83.731 355.617 83.876 354.641 83.9551 353.6H76.48V350.594H87.7388ZM90.5073 372.452V348.326H94.3042V357.423H97.5474V360.534H94.3042V372.452H90.5073ZM117.219 359.4V362.406H99.9751V350.277H117.061V353.336H103.719V359.4H117.219ZM97.4438 369.71V366.572H119.566V369.71H97.4438ZM144.091 348.326V354.918H147.229V358.029H144.091V365.544H140.242V348.326H144.091ZM124.606 360.35C129.879 358.926 132.727 356.315 133.281 353.204H125.661V350.119H137.473C137.473 356.764 133.518 361.325 126.162 363.329L124.606 360.35ZM128.166 372.136V363.777H132.015V369.104H144.83V372.136H128.166ZM167.639 348.326V366.098H163.869V360.455H161.153V357.37H163.869V355.498H161.153V352.466H163.869V348.326H167.639ZM147.125 360.323L149.525 360.31V353.02H147.732V349.987H160.625V353.02H158.78V359.994C159.492 359.928 160.19 359.875 160.863 359.796L160.995 362.564C156.539 363.29 151.305 363.408 147.521 363.408L147.125 360.323ZM151.397 372.136V364.806H155.22V369.104H168.193V372.136H151.397ZM153.19 360.257L155.167 360.191V353.02H153.19V360.257ZM189.974 348.326V360.455H186.204V358.794H180.983V355.92H186.204V354.074H181.207C179.717 357.634 176.355 359.875 171.016 360.982L169.75 357.924C175.143 356.909 177.45 354.799 177.872 352.202H171.148V349.196H182.09C182.09 349.908 182.051 350.581 181.958 351.227H186.204V348.326H189.974ZM173.758 364.199V361.246H189.974V368.102H177.582V369.288H190.422V372.294H173.811V365.307H186.177V364.199H173.758ZM212.81 348.326V372.531H209.224V348.326H212.81ZM191.268 365.254C194.88 363.013 196.001 358.688 195.988 354.681V353.705H192.244V350.673H203.081V353.705H199.653V354.681C199.64 358.649 200.694 362.67 204.293 364.727L202.105 367.495C200.009 366.282 198.664 364.278 197.86 361.866C197.042 364.502 195.658 366.744 193.536 368.049L191.268 365.254ZM201.393 359.532V356.5H204.293V348.669H207.827V371.45H204.293V359.532H201.393Z" fill="black"/>
<g clip-path="url(#clip0_487_2536)">
<g filter="url(#filter0_d_487_2536)">
<rect x="254" y="432" width="508.5" height="228" rx="15" fill="white" shape-rendering="crispEdges"/>
<rect x="255" y="433" width="506.5" height="226" rx="14" stroke="#00C914" stroke-width="2" shape-rendering="crispEdges"/>
<rect x="290" y="468" width="103" height="156" rx="12" fill="#FF6450"/>
<path d="M433.547 494.139V497.145H426.718V500.915H435.894V503.921H413.771V500.915H422.921V497.145H416.303V483.908H433.362V486.94H420.179V489.023H432.782V491.977H420.179V494.139H433.547ZM449.053 485.385C449.04 488.76 451.663 492.583 457.543 493.559L455.882 496.696C451.544 495.879 448.578 493.585 447.022 490.632C445.454 493.559 442.461 495.866 438.163 496.696L436.555 493.559C442.303 492.557 444.966 488.707 444.992 485.385V483.697H449.053V485.385ZM436.106 503.657V500.546H458.229V503.657H436.106ZM462.792 483.829V487.02H465.429V483.829H468.909V495.51H459.206V483.829H462.792ZM462.502 501.943C462.489 499.017 465.798 497.25 470.939 497.25C476.081 497.25 479.403 499.017 479.43 501.943C479.403 504.817 476.081 506.558 470.939 506.531C465.798 506.558 462.489 504.817 462.502 501.943ZM462.792 492.53H465.429V489.946H462.792V492.53ZM466.299 501.943C466.286 503.13 467.947 503.67 470.939 503.684C473.919 503.67 475.58 503.13 475.606 501.943C475.58 500.73 473.919 500.15 470.939 500.177C467.947 500.15 466.286 500.73 466.299 501.943ZM470.544 496.354V482.774H474.051V488.021H475.686V482.353H479.298V496.934H475.686V491.08H474.051V496.354H470.544ZM500.736 484.356V487.125C500.723 490.619 500.723 493.994 499.576 499.333L495.806 498.99C496.267 497.079 496.544 495.378 496.715 493.822L482.965 494.481L482.49 491.449L496.939 490.975C496.992 489.722 496.992 488.549 496.992 487.389H483.255V484.356H500.736ZM480.776 503.763V500.704H502.846V503.763H480.776ZM515.741 484.594C515.741 492.201 514.12 498.357 504.957 502.972L502.9 500.124C506.75 498.199 509.044 496.103 510.375 493.625L503.612 494.244L503.19 491.001L511.522 490.54C511.733 489.617 511.878 488.641 511.958 487.6H504.482V484.594H515.741ZM518.51 506.452V482.326H522.307V491.423H525.55V494.534H522.307V506.452H518.51ZM545.222 493.4V496.406H527.978V484.277H545.063V487.336H531.722V493.4H545.222ZM525.446 503.71V500.572H547.568V503.71H525.446ZM563.841 483.486C569.062 483.473 573.03 486.163 573.043 490.184C573.03 493.862 569.984 496.327 565.713 496.868V500.704H574.941V503.789H552.819V500.704H561.969V496.868C557.71 496.327 554.678 493.862 554.691 490.184C554.678 486.163 558.633 483.473 563.841 483.486ZM558.462 490.184C558.449 492.662 560.637 493.967 563.841 493.98C567.084 493.967 569.272 492.662 569.272 490.184C569.272 487.863 567.084 486.492 563.841 486.492C560.637 486.492 558.449 487.863 558.462 490.184ZM584.62 484.093V492.003H579.795V494.271C582.194 494.231 583.987 494.112 586.07 493.77L586.413 496.723C583.763 497.237 581.417 497.263 577.791 497.25H576.077V489.287H580.955V487.02H576.051V484.093H584.62ZM579.452 506.136V498.727H583.249V503.104H596.591V506.136H579.452ZM585.464 491.265V488.18H587.441V482.748H591.001V499.966H587.441V491.265H585.464ZM592.398 500.52V482.353H596.011V500.52H592.398ZM607.087 488.654C607.087 492.504 608.788 496.696 612.993 498.41L610.963 501.39C608.142 500.216 606.283 497.949 605.215 495.18C604.147 498.226 602.249 500.73 599.414 501.996L597.252 499.017C601.444 497.171 603.211 492.728 603.211 488.654V487.705H598.254V484.62H611.938V487.705H607.087V488.654ZM613.995 506.531V482.326H617.818V506.531H613.995ZM632.981 483.486V493.822H621.037V483.486H632.981ZM623.806 506.399V499.544H636.409V498.384H623.806V495.483H640.127V502.207H627.55V503.42H640.707V506.399H623.806ZM624.781 490.896H629.237V486.492H624.781V490.896ZM636.356 494.481V482.326H640.127V494.481H636.356ZM662.119 484.356V487.125C662.106 490.619 662.106 493.994 660.959 499.333L657.188 498.99C657.65 497.079 657.927 495.378 658.098 493.822L644.348 494.481L643.873 491.449L658.322 490.975C658.375 489.722 658.375 488.549 658.375 487.389H644.638V484.356H662.119ZM642.159 503.763V500.704H664.229V503.763H642.159Z" fill="#252525"/>
<path d="M421.622 541.656C421.622 545.269 422.729 548.841 426.209 550.727L424.153 553.495C422.057 552.44 420.686 550.647 419.855 548.472C419.024 550.858 417.653 552.862 415.531 554.075L413.369 551.228C416.941 549.171 418.022 545.321 418.036 541.656V541.34H414.371V538.308H418.036V535.144H421.595V538.308H425.181V541.34H421.622V541.656ZM423.863 546.455V543.396H426.394V534.669H429.927V557.45H426.394V546.455H423.863ZM431.325 558.531V534.326H434.911V558.531H431.325ZM456.217 536.356V539.125C456.204 542.619 456.204 545.994 455.057 551.333L451.287 550.99C451.748 549.079 452.025 547.378 452.196 545.822L438.446 546.481L437.971 543.449L452.42 542.975C452.473 541.722 452.473 540.549 452.473 539.389H438.736V536.356H456.217ZM436.257 555.763V552.704H458.327V555.763H436.257ZM471.857 556.264C467.361 556.264 464.118 553.943 464.131 550.832C464.118 548.459 466.017 546.534 468.429 546.165V546.033C466.32 545.638 464.843 543.911 464.843 541.814C464.843 538.822 467.81 536.646 471.857 536.646C475.878 536.646 478.844 538.835 478.844 541.814C478.844 543.924 477.328 545.638 475.258 546.033V546.165C477.631 546.534 479.556 548.459 479.556 550.832C479.556 553.943 476.313 556.264 471.857 556.264ZM468.851 550.357C468.838 551.86 470.064 552.928 471.857 552.941C473.624 552.928 474.836 551.86 474.836 550.357C474.836 548.854 473.571 547.747 471.857 547.747C470.104 547.747 468.838 548.841 468.851 550.357ZM469.247 542.289C469.233 543.673 470.328 544.662 471.857 544.662C473.36 544.662 474.454 543.673 474.441 542.289C474.454 540.931 473.373 539.969 471.857 539.969C470.314 539.969 469.233 540.931 469.247 542.289ZM488.892 556.264C483.935 556.264 480.903 552.717 480.903 546.455C480.903 540.193 483.935 536.646 488.892 536.646C493.849 536.646 496.895 540.219 496.881 546.455C496.895 552.73 493.849 556.264 488.892 556.264ZM485.517 546.455C485.504 550.687 486.862 552.599 488.892 552.599C490.922 552.599 492.28 550.687 492.267 546.455C492.267 542.289 490.922 540.298 488.892 540.285C486.875 540.298 485.53 542.289 485.517 546.455ZM498.755 556L506.56 540.681V540.549H497.437V536.91H511.227V540.575L503.396 556H498.755ZM519.667 536.646C523.819 536.66 527.59 539.138 527.603 546.033C527.616 552.427 524.439 556.264 519.561 556.264C515.527 556.264 512.811 553.732 512.442 550.463H516.898C517.175 551.742 518.203 552.427 519.561 552.414C521.96 552.427 523.16 550.212 523.173 546.692H523.042C522.211 548.393 520.286 549.421 518.137 549.408C514.696 549.421 512.257 546.864 512.257 543.344C512.231 539.402 515.237 536.633 519.667 536.646ZM516.608 543.186C516.634 544.926 517.887 546.257 519.667 546.271C521.42 546.257 522.765 544.886 522.751 543.186C522.738 541.485 521.446 540.114 519.693 540.101C517.9 540.114 516.595 541.458 516.608 543.186Z" fill="#727272"/>
<path d="M435.059 586.455V598.902H431.468V586.455H435.059ZM418.211 592.854C418.211 594.636 419.588 595.662 421.424 595.662C423.26 595.662 424.583 594.636 424.583 592.854C424.583 591.099 423.26 590.046 421.424 590.046C419.588 590.046 418.211 591.099 418.211 592.854ZM428.039 592.854C428.039 596.175 425.204 598.551 421.424 598.551C417.617 598.551 414.755 596.175 414.755 592.854C414.755 589.56 417.617 587.184 421.424 587.184C425.204 587.184 428.039 589.56 428.039 592.854ZM422.045 608.271H435.68V611.052H418.508V604.167H431.522V602.655H418.481V599.928H435.059V606.705H422.045V608.271ZM448.881 588.372V591.99C448.881 596.607 450.852 601.143 455.064 602.952L453.039 605.841C450.177 604.545 448.26 602.088 447.153 599.037C446.046 602.358 444.021 605.031 441.051 606.435L438.918 603.492C443.265 601.629 445.317 596.823 445.317 591.99V588.372H448.881ZM456.279 586.428H459.843V611.376H456.279V586.428ZM480.172 592.53V591.072H470.479V592.53H480.172ZM483.709 586.833V595.149H466.942V586.833H470.479V588.48H480.172V586.833H483.709ZM486.571 599.28H477.067V600.819H483.817V607.137H470.209V608.487H484.465V611.133H466.672V604.68H480.307V603.438H466.645V600.819H473.503V599.28H464.08V596.472H486.571V599.28Z" fill="#A2A2A2"/>
<path d="M496 594L504 602L512 594" stroke="#A2A2A2" stroke-width="3" stroke-linecap="round" stroke-linejoin="round"/>
</g>
<g filter="url(#filter1_d_487_2536)">
<rect x="782.5" y="432" width="508.5" height="228" rx="15" fill="white" shape-rendering="crispEdges"/>
<rect x="783.5" y="433" width="506.5" height="226" rx="14" stroke="#A2A2A2" stroke-width="2" shape-rendering="crispEdges"/>
<rect x="818.5" y="468" width="103" height="156" rx="12" fill="#CDCDCD"/>
<path d="M961.567 482.326V486.835H964.705V489.946H961.567V494.35H957.771V482.326H961.567ZM942.372 488.522C942.346 485.279 945.193 483.025 948.938 483.012C952.668 483.025 955.477 485.279 955.477 488.522C955.477 491.7 952.668 494.02 948.938 494.007C945.193 494.02 942.346 491.7 942.372 488.522ZM945.325 498.146V495.246H961.567V502.075H949.096V503.314H962.2V506.268H945.352V499.359H957.771V498.146H945.325ZM946.063 488.522C946.037 490.104 947.263 491.027 948.938 491.027C950.612 491.027 951.812 490.104 951.812 488.522C951.812 486.954 950.612 486.083 948.938 486.07C947.263 486.083 946.037 486.954 946.063 488.522ZM984.772 487.731V490.632H976.361V483.064H984.641V486.018H980.158V487.731H984.772ZM964.628 494.745V491.739H986.697V494.745H964.628ZM966.658 490.632V483.064H975.069V486.018H970.455V487.705C972.182 487.652 973.619 487.507 975.254 487.178L975.597 490.078C973.224 490.54 971.141 490.632 968.214 490.632H966.658ZM967.133 506.373V499.781H980.29V498.753H967.133V495.984H984.061V502.392H970.877V503.525H984.641V506.373H967.133ZM1007.21 484.304V486.571C1007.21 489.485 1007.21 492.86 1006.32 497.856L1002.57 497.54C1003.34 493.229 1003.4 489.999 1003.39 487.31H989.099V484.304H1007.21ZM986.963 503.71V500.651H991.419V493.137H995.189V500.651H997.457V493.137H1001.2V500.651H1009.03V503.71H986.963ZM1031.37 494.666V497.646H1009.25V494.666H1018.37V493.479H1011.96V482.88H1028.84V485.78H1015.73V486.835H1028.31V489.551H1015.73V490.605H1029.07V493.479H1022.19V494.666H1031.37ZM1011.78 502.497C1011.78 499.966 1014.86 498.502 1020.29 498.516C1025.63 498.502 1028.73 499.966 1028.73 502.497C1028.73 505.147 1025.63 506.558 1020.29 506.531C1014.86 506.558 1011.78 505.147 1011.78 502.497ZM1015.57 502.497C1015.56 503.407 1016.98 503.763 1020.29 503.763C1023.51 503.763 1024.92 503.407 1024.93 502.497C1024.92 501.64 1023.51 501.297 1020.29 501.311C1016.98 501.297 1015.56 501.64 1015.57 502.497ZM1039.33 489.656C1039.33 493.269 1040.44 496.841 1043.92 498.727L1041.86 501.495C1039.77 500.44 1038.4 498.647 1037.57 496.472C1036.73 498.858 1035.36 500.862 1033.24 502.075L1031.08 499.228C1034.65 497.171 1035.73 493.321 1035.75 489.656V489.34H1032.08V486.308H1035.75V483.144H1039.31V486.308H1042.89V489.34H1039.33V489.656ZM1041.57 494.455V491.396H1044.1V482.669H1047.64V505.45H1044.1V494.455H1041.57ZM1049.04 506.531V482.326H1052.62V506.531H1049.04ZM1073.93 484.356V487.125C1073.91 490.619 1073.91 493.994 1072.77 499.333L1069 498.99C1069.46 497.079 1069.74 495.378 1069.91 493.822L1056.16 494.481L1055.68 491.449L1070.13 490.975C1070.18 489.722 1070.18 488.549 1070.18 487.389H1056.45V484.356H1073.93ZM1053.97 503.763V500.704H1076.04V503.763H1053.97ZM1088.93 484.594C1088.93 492.201 1087.31 498.357 1078.15 502.972L1076.09 500.124C1079.94 498.199 1082.24 496.103 1083.57 493.625L1076.8 494.244L1076.38 491.001L1084.71 490.54C1084.92 489.617 1085.07 488.641 1085.15 487.6H1077.67V484.594H1088.93ZM1091.7 506.452V482.326H1095.5V491.423H1098.74V494.534H1095.5V506.452H1091.7ZM1118.41 493.4V496.406H1101.17V484.277H1118.25V487.336H1104.91V493.4H1118.41ZM1098.64 503.71V500.572H1120.76V503.71H1098.64Z" fill="#252525"/>
<path d="M950.122 541.656C950.122 545.269 951.229 548.841 954.709 550.727L952.653 553.495C950.557 552.44 949.186 550.647 948.355 548.472C947.524 550.858 946.153 552.862 944.031 554.075L941.869 551.228C945.441 549.171 946.522 545.321 946.536 541.656V541.34H942.871V538.308H946.536V535.144H950.095V538.308H953.681V541.34H950.122V541.656ZM952.363 546.455V543.396H954.894V534.669H958.427V557.45H954.894V546.455H952.363ZM959.825 558.531V534.326H963.411V558.531H959.825ZM984.717 536.356V539.125C984.704 542.619 984.704 545.994 983.557 551.333L979.787 550.99C980.248 549.079 980.525 547.378 980.696 545.822L966.946 546.481L966.471 543.449L980.92 542.975C980.973 541.722 980.973 540.549 980.973 539.389H967.236V536.356H984.717ZM964.757 555.763V552.704H986.827V555.763H964.757ZM1000.36 556.264C995.861 556.264 992.618 553.943 992.631 550.832C992.618 548.459 994.517 546.534 996.929 546.165V546.033C994.82 545.638 993.343 543.911 993.343 541.814C993.343 538.822 996.31 536.646 1000.36 536.646C1004.38 536.646 1007.34 538.835 1007.34 541.814C1007.34 543.924 1005.83 545.638 1003.76 546.033V546.165C1006.13 546.534 1008.06 548.459 1008.06 550.832C1008.06 553.943 1004.81 556.264 1000.36 556.264ZM997.351 550.357C997.338 551.86 998.564 552.928 1000.36 552.941C1002.12 552.928 1003.34 551.86 1003.34 550.357C1003.34 548.854 1002.07 547.747 1000.36 547.747C998.604 547.747 997.338 548.841 997.351 550.357ZM997.747 542.289C997.733 543.673 998.828 544.662 1000.36 544.662C1001.86 544.662 1002.95 543.673 1002.94 542.289C1002.95 540.931 1001.87 539.969 1000.36 539.969C998.814 539.969 997.733 540.931 997.747 542.289ZM1017.39 556.264C1012.44 556.264 1009.4 552.717 1009.4 546.455C1009.4 540.193 1012.44 536.646 1017.39 536.646C1022.35 536.646 1025.39 540.219 1025.38 546.455C1025.39 552.73 1022.35 556.264 1017.39 556.264ZM1014.02 546.455C1014 550.687 1015.36 552.599 1017.39 552.599C1019.42 552.599 1020.78 550.687 1020.77 546.455C1020.77 542.289 1019.42 540.298 1017.39 540.285C1015.38 540.298 1014.03 542.289 1014.02 546.455ZM1027.26 556L1035.06 540.681V540.549H1025.94V536.91H1039.73V540.575L1031.9 556H1027.26ZM1048.17 536.646C1052.32 536.66 1056.09 539.138 1056.1 546.033C1056.12 552.427 1052.94 556.264 1048.06 556.264C1044.03 556.264 1041.31 553.732 1040.94 550.463H1045.4C1045.67 551.742 1046.7 552.427 1048.06 552.414C1050.46 552.427 1051.66 550.212 1051.67 546.692H1051.54C1050.71 548.393 1048.79 549.421 1046.64 549.408C1043.2 549.421 1040.76 546.864 1040.76 543.344C1040.73 539.402 1043.74 536.633 1048.17 536.646ZM1045.11 543.186C1045.13 544.926 1046.39 546.257 1048.17 546.271C1049.92 546.257 1051.26 544.886 1051.25 543.186C1051.24 541.485 1049.95 540.114 1048.19 540.101C1046.4 540.114 1045.09 541.458 1045.11 543.186Z" fill="#727272"/>
<path d="M963.559 586.455V598.902H959.968V586.455H963.559ZM946.711 592.854C946.711 594.636 948.088 595.662 949.924 595.662C951.76 595.662 953.083 594.636 953.083 592.854C953.083 591.099 951.76 590.046 949.924 590.046C948.088 590.046 946.711 591.099 946.711 592.854ZM956.539 592.854C956.539 596.175 953.704 598.551 949.924 598.551C946.117 598.551 943.255 596.175 943.255 592.854C943.255 589.56 946.117 587.184 949.924 587.184C953.704 587.184 956.539 589.56 956.539 592.854ZM950.545 608.271H964.18V611.052H947.008V604.167H960.022V602.655H946.981V599.928H963.559V606.705H950.545V608.271ZM977.381 588.372V591.99C977.381 596.607 979.352 601.143 983.564 602.952L981.539 605.841C978.677 604.545 976.76 602.088 975.653 599.037C974.546 602.358 972.521 605.031 969.551 606.435L967.418 603.492C971.765 601.629 973.817 596.823 973.817 591.99V588.372H977.381ZM984.779 586.428H988.343V611.376H984.779V586.428ZM1008.67 592.53V591.072H998.979V592.53H1008.67ZM1012.21 586.833V595.149H995.442V586.833H998.979V588.48H1008.67V586.833H1012.21ZM1015.07 599.28H1005.57V600.819H1012.32V607.137H998.709V608.487H1012.96V611.133H995.172V604.68H1008.81V603.438H995.145V600.819H1002V599.28H992.58V596.472H1015.07V599.28Z" fill="#A2A2A2"/>
</g>
<path d="M62 556C75.8071 556 87 544.807 87 531C87 517.193 75.8071 506 62 506C48.1929 506 37 517.193 37 531C37 544.807 48.1929 556 62 556Z" stroke="#A2A2A2" stroke-width="3.75" stroke-linecap="round" stroke-linejoin="round"/>
<path d="M64.5 541L54.5 531L64.5 521" stroke="#A2A2A2" stroke-width="3.75" stroke-linecap="round" stroke-linejoin="round"/>
<path d="M62 556C75.8071 556 87 544.807 87 531C87 517.193 75.8071 506 62 506C48.1929 506 37 517.193 37 531C37 544.807 48.1929 556 62 556Z" stroke="#A2A2A2" stroke-width="3.75" stroke-linecap="round" stroke-linejoin="round"/>
<path d="M64.5 541L54.5 531L64.5 521" stroke="#A2A2A2" stroke-width="3.75" stroke-linecap="round" stroke-linejoin="round"/>
</g>
<rect x="32" y="706" width="992" height="74" rx="12" fill="#E4FFF1"/>
<path d="M81.0674 747.691H78.6826V740.58H75.2451V738.646H78.6826V733.512H81.0674V747.691ZM64.7607 743.502C65.7633 743.173 66.6227 742.693 67.3389 742.062C68.055 741.425 68.5957 740.702 68.9609 739.893C69.3262 739.076 69.5088 738.231 69.5088 737.357V736.842H65.4697V734.908H75.9541V736.842H71.9365V737.379C71.9365 738.174 72.112 738.951 72.4629 739.71C72.8138 740.462 73.333 741.139 74.0205 741.74C74.708 742.335 75.5387 742.793 76.5127 743.115L75.3096 745.027C74.2497 744.662 73.333 744.132 72.5596 743.438C71.7933 742.736 71.1917 741.912 70.7549 740.967C70.318 742.012 69.695 742.922 68.8857 743.695C68.0765 744.469 67.1097 745.049 65.9854 745.436L64.7607 743.502ZM68.3271 746.445H70.7119V750.592H81.5615V752.525H68.3271V746.445ZM99.8525 748.207H97.4463V746.51H93.6436V744.834H97.4463V733.512H99.8525V748.207ZM83.4814 742.234C86.0524 742.22 88.3298 742.177 90.3135 742.105C92.2972 742.034 94.195 741.883 96.0068 741.654L96.1357 743.373C94.7035 743.617 93.0706 743.803 91.2373 743.932V747.67H88.8525V744.061C87.4704 744.118 85.7803 744.146 83.7822 744.146L83.4814 742.234ZM84.9639 737.658C84.9639 736.985 85.168 736.387 85.5762 735.864C85.9844 735.341 86.5537 734.937 87.2842 734.65C88.0218 734.364 88.8669 734.221 89.8193 734.221C90.7503 734.221 91.5811 734.364 92.3115 734.65C93.042 734.937 93.6113 735.341 94.0195 735.864C94.4349 736.387 94.6462 736.985 94.6533 737.658C94.6462 738.339 94.4349 738.937 94.0195 739.452C93.6113 739.968 93.042 740.369 92.3115 740.655C91.5882 740.935 90.7575 741.074 89.8193 741.074C88.8669 741.074 88.0218 740.935 87.2842 740.655C86.5537 740.369 85.9844 739.971 85.5762 739.463C85.168 738.947 84.9639 738.346 84.9639 737.658ZM86.0596 746.789H88.4443V750.592H100.304V752.525H86.0596V746.789ZM87.2197 737.658C87.2197 738.181 87.4561 738.589 87.9287 738.883C88.4014 739.176 89.0316 739.327 89.8193 739.334C90.5785 739.327 91.1908 739.176 91.6562 738.883C92.1289 738.582 92.3688 738.174 92.376 737.658C92.3688 737.143 92.1325 736.734 91.667 736.434C91.2015 736.133 90.5964 735.982 89.8516 735.982C89.0495 735.982 88.4085 736.133 87.9287 736.434C87.4561 736.727 87.2197 737.135 87.2197 737.658ZM123.437 743.395H121.073V733.49H123.437V743.395ZM107.28 741.504C108.297 741.182 109.167 740.709 109.891 740.086C110.614 739.463 111.158 738.754 111.523 737.959C111.896 737.157 112.078 736.326 112.071 735.467V733.963H114.542V735.467C114.535 736.298 114.714 737.092 115.079 737.852C115.444 738.604 115.978 739.273 116.68 739.86C117.389 740.44 118.244 740.881 119.247 741.182L118.087 743.029C116.977 742.686 116.021 742.174 115.219 741.493C114.417 740.806 113.79 739.989 113.339 739.044C112.888 740.068 112.25 740.956 111.427 741.708C110.603 742.453 109.622 743.008 108.483 743.373L107.28 741.504ZM110.589 744.297H123.479V749.346H112.974V750.85H124.06V752.74H110.632V747.562H121.095V746.145H110.589V744.297ZM133.198 736.82C133.198 737.622 133.374 738.403 133.725 739.162C134.076 739.914 134.595 740.591 135.282 741.192C135.97 741.787 136.8 742.249 137.774 742.578L136.571 744.426C135.511 744.082 134.595 743.563 133.821 742.868C133.055 742.174 132.453 741.357 132.017 740.419C131.58 741.465 130.957 742.37 130.147 743.137C129.338 743.903 128.371 744.476 127.247 744.855L126.022 742.965C127.025 742.635 127.881 742.152 128.59 741.515C129.306 740.877 129.847 740.154 130.212 739.345C130.584 738.528 130.771 737.694 130.771 736.842V736.584H126.731V734.672H137.216V736.584H133.198V736.82ZM129.095 745.994H142.329V752.912H139.944V747.906H129.095V745.994ZM136.636 738.303H139.944V733.49H142.329V745.07H139.944V740.258H136.636V738.303ZM146.806 755.49H144.765L145.882 749.475H148.61L146.806 755.49ZM170.476 739.613H173.183V741.59H170.476V748.014H168.091V733.512H170.476V739.613ZM155.179 735.66H159.755V733.49H162.14V735.66H166.694V737.572H155.179V735.66ZM156.167 742.084C156.167 741.346 156.368 740.698 156.769 740.14C157.17 739.574 157.732 739.137 158.455 738.829C159.178 738.521 160.006 738.367 160.937 738.367C161.86 738.367 162.68 738.521 163.396 738.829C164.12 739.137 164.682 739.574 165.083 740.14C165.484 740.698 165.685 741.346 165.685 742.084C165.685 742.814 165.484 743.459 165.083 744.018C164.682 744.569 164.123 744.999 163.407 745.307C162.691 745.607 161.868 745.758 160.937 745.758C159.998 745.758 159.168 745.607 158.444 745.307C157.728 744.999 157.17 744.569 156.769 744.018C156.368 743.459 156.167 742.814 156.167 742.084ZM158.036 746.875H160.421V750.592H171.249V752.525H158.036V746.875ZM158.487 742.084C158.48 742.657 158.695 743.104 159.132 743.427C159.576 743.749 160.167 743.91 160.904 743.91C161.663 743.91 162.269 743.753 162.72 743.438C163.178 743.115 163.407 742.664 163.407 742.084C163.407 741.504 163.182 741.049 162.73 740.72C162.279 740.383 161.681 740.215 160.937 740.215C160.192 740.215 159.594 740.383 159.143 740.72C158.699 741.049 158.48 741.504 158.487 742.084ZM189.69 744.211H183.933V748.658H191.667V750.613H173.921V748.658H181.569V744.211H176.069V734.93H189.54V736.842H178.454V742.32H189.69V744.211ZM215.401 750.57H197.655V748.615H205.325V744.146H207.71V748.615H215.401V750.57ZM198.429 743.072C199.696 742.865 200.846 742.46 201.877 741.858C202.908 741.25 203.721 740.523 204.315 739.678C204.91 738.826 205.218 737.938 205.239 737.014H199.138V735.059H213.876V737.014H207.753C207.774 737.938 208.086 738.818 208.688 739.656C209.289 740.494 210.113 741.207 211.158 741.794C212.211 742.374 213.389 742.764 214.692 742.965L213.747 744.855C212.1 744.562 210.639 744 209.364 743.169C208.09 742.331 207.141 741.307 206.518 740.097C205.895 741.321 204.953 742.363 203.692 743.223C202.432 744.075 200.993 744.655 199.374 744.963L198.429 743.072ZM232.683 747.756H230.298V741.225H226.56V739.248H230.298V733.512H232.683V747.756ZM216.677 743.803C218.073 743.359 219.298 742.797 220.351 742.116C221.403 741.429 222.248 740.648 222.886 739.774C223.53 738.894 223.928 737.945 224.078 736.928H217.687V734.973H226.688C226.688 736.663 226.33 738.21 225.614 739.613C224.898 741.017 223.867 742.234 222.521 743.266C221.174 744.297 219.563 745.113 217.687 745.715L216.677 743.803ZM220.028 746.316H222.456V750.592H233.177V752.525H220.028V746.316ZM244.558 746.939H247.114V744.855H249.327V751.021C250.065 750.714 250.681 750.305 251.175 749.797C251.676 749.288 252.049 748.73 252.292 748.121C252.535 747.512 252.657 746.889 252.657 746.252V744.705H255.042V746.252C255.035 746.947 255.153 747.609 255.396 748.239C255.647 748.862 256.03 749.421 256.546 749.915C257.062 750.402 257.706 750.778 258.479 751.043L257.255 752.826C255.629 752.239 254.487 751.15 253.828 749.561C253.492 750.298 253.04 750.946 252.475 751.505C251.916 752.071 251.246 752.511 250.466 752.826L249.327 751.14V752.676H242.323V744.855H244.558V746.939ZM240.411 738.797C240.411 737.923 240.63 737.146 241.066 736.466C241.51 735.778 242.123 735.245 242.903 734.865C243.684 734.479 244.565 734.285 245.546 734.285C246.369 734.285 247.129 734.432 247.823 734.726C248.518 735.012 249.098 735.42 249.563 735.95C250.036 736.48 250.355 737.092 250.52 737.787H254.032V733.49H256.417V743.781H254.032V739.764H250.53C250.373 740.473 250.061 741.099 249.596 741.644C249.13 742.188 248.547 742.61 247.845 742.911C247.143 743.205 246.377 743.352 245.546 743.352C244.565 743.352 243.684 743.162 242.903 742.782C242.123 742.396 241.51 741.858 241.066 741.171C240.63 740.476 240.411 739.685 240.411 738.797ZM242.688 738.797C242.688 739.312 242.81 739.767 243.054 740.161C243.297 740.555 243.634 740.859 244.063 741.074C244.5 741.289 244.994 741.396 245.546 741.396C246.09 741.396 246.574 741.289 246.996 741.074C247.419 740.859 247.752 740.555 247.995 740.161C248.239 739.767 248.36 739.312 248.36 738.797C248.36 738.296 248.239 737.852 247.995 737.465C247.752 737.078 247.415 736.781 246.985 736.573C246.563 736.366 246.083 736.262 245.546 736.262C244.994 736.262 244.5 736.366 244.063 736.573C243.634 736.781 243.297 737.078 243.054 737.465C242.81 737.852 242.688 738.296 242.688 738.797ZM247.114 750.85V748.723H244.558V750.85H247.114ZM275.073 752.934H272.667V733.49H275.073V752.934ZM259.54 741.762C259.54 740.394 259.755 739.191 260.185 738.152C260.614 737.114 261.212 736.315 261.979 735.757C262.752 735.191 263.629 734.908 264.61 734.908C265.577 734.908 266.444 735.191 267.21 735.757C267.983 736.315 268.589 737.114 269.025 738.152C269.462 739.191 269.681 740.394 269.681 741.762C269.681 743.144 269.462 744.354 269.025 745.393C268.589 746.431 267.983 747.233 267.21 747.799C266.444 748.357 265.577 748.637 264.61 748.637C263.629 748.637 262.752 748.357 261.979 747.799C261.212 747.233 260.614 746.431 260.185 745.393C259.755 744.354 259.54 743.144 259.54 741.762ZM261.839 741.762C261.839 742.743 261.953 743.588 262.183 744.297C262.419 745.006 262.745 745.547 263.16 745.919C263.576 746.291 264.059 746.481 264.61 746.488C265.155 746.481 265.634 746.291 266.05 745.919C266.465 745.547 266.787 745.006 267.017 744.297C267.246 743.588 267.36 742.743 267.36 741.762C267.36 740.788 267.246 739.95 267.017 739.248C266.787 738.539 266.465 737.998 266.05 737.626C265.634 737.246 265.155 737.057 264.61 737.057C264.059 737.057 263.576 737.246 263.16 737.626C262.745 737.998 262.419 738.539 262.183 739.248C261.953 739.95 261.839 740.788 261.839 741.762ZM290.3 747.036C292.162 746.929 293.823 746.768 295.284 746.553L295.478 748.314C293.666 748.651 291.797 748.877 289.87 748.991C287.944 749.099 285.906 749.152 283.758 749.152H283.038L282.737 747.219C284.993 747.204 286.719 747.179 287.915 747.144V743.889H290.3V747.036ZM283.188 742.707C284.141 742.442 284.957 742.066 285.638 741.579C286.325 741.085 286.855 740.516 287.228 739.871C287.6 739.227 287.811 738.539 287.861 737.809H283.769V735.875H287.915V733.662H290.3V735.875H294.489V737.809H290.332C290.375 738.503 290.583 739.162 290.955 739.785C291.335 740.408 291.868 740.956 292.556 741.429C293.25 741.894 294.074 742.249 295.026 742.492L293.931 744.361C292.799 744.053 291.825 743.584 291.009 742.954C290.192 742.317 289.559 741.558 289.107 740.677C288.671 741.601 288.048 742.396 287.238 743.062C286.429 743.72 285.459 744.204 284.327 744.512L283.188 742.707ZM296.444 733.49H298.829V752.934H296.444V733.49ZM318.13 752.912H315.853V743.008H313.661V751.924H311.47V733.855H313.661V741.096H315.853V733.49H318.13V752.912ZM302.017 735.789H309.278V737.723H304.423V746.359C305.547 746.345 306.564 746.302 307.474 746.23C308.383 746.159 309.307 746.037 310.245 745.865L310.417 747.82C309.336 748.035 308.272 748.178 307.227 748.25C306.188 748.322 304.888 748.365 303.327 748.379H302.017V735.789ZM325.794 748.98L331.294 743.674C331.888 743.079 332.347 742.592 332.669 742.213C332.998 741.826 333.249 741.447 333.421 741.074C333.593 740.695 333.679 740.294 333.679 739.871C333.679 739.398 333.561 738.983 333.324 738.625C333.095 738.267 332.776 737.991 332.368 737.798C331.967 737.604 331.516 737.508 331.015 737.508C330.485 737.508 330.019 737.615 329.618 737.83C329.224 738.038 328.92 738.335 328.705 738.722C328.497 739.108 328.394 739.563 328.394 740.086H325.729C325.729 739.119 325.951 738.271 326.396 737.54C326.847 736.802 327.473 736.233 328.275 735.832C329.085 735.431 330.005 735.23 331.036 735.23C332.082 735.23 333.006 735.424 333.808 735.811C334.617 736.197 335.243 736.734 335.688 737.422C336.139 738.102 336.364 738.876 336.364 739.742C336.357 740.344 336.239 740.924 336.01 741.482C335.781 742.034 335.387 742.65 334.828 743.33C334.27 744.01 333.478 744.834 332.454 745.801L329.683 748.551V748.658H336.601V751H325.794V748.98ZM347.114 747.262C347.107 746.653 347.232 746.094 347.49 745.586C347.755 745.077 348.135 744.673 348.629 744.372C349.13 744.064 349.721 743.91 350.401 743.91C351.089 743.91 351.68 744.061 352.174 744.361C352.668 744.662 353.04 745.067 353.291 745.575C353.549 746.084 353.674 746.646 353.667 747.262V748.078C353.674 748.687 353.549 749.249 353.291 749.765C353.033 750.273 352.657 750.678 352.163 750.979C351.669 751.279 351.082 751.43 350.401 751.43C349.707 751.43 349.112 751.279 348.618 750.979C348.124 750.678 347.748 750.273 347.49 749.765C347.232 749.256 347.107 748.694 347.114 748.078V747.262ZM339.208 738.367C339.201 737.751 339.326 737.189 339.584 736.681C339.849 736.172 340.229 735.768 340.723 735.467C341.224 735.166 341.815 735.016 342.495 735.016C343.19 735.016 343.781 735.166 344.268 735.467C344.762 735.76 345.134 736.161 345.385 736.67C345.643 737.178 345.768 737.744 345.761 738.367V739.184C345.768 739.799 345.643 740.362 345.385 740.87C345.127 741.371 344.751 741.772 344.257 742.073C343.763 742.367 343.175 742.514 342.495 742.514C341.8 742.514 341.206 742.367 340.712 742.073C340.218 741.772 339.842 741.371 339.584 740.87C339.326 740.362 339.201 739.799 339.208 739.184V738.367ZM350.767 735.445H352.657L341.958 751H340.067L350.767 735.445ZM341.185 739.184C341.192 739.642 341.299 740.025 341.507 740.333C341.715 740.634 342.044 740.788 342.495 740.795C342.939 740.788 343.261 740.634 343.462 740.333C343.67 740.025 343.777 739.642 343.784 739.184V738.367C343.777 737.895 343.673 737.508 343.473 737.207C343.279 736.899 342.953 736.742 342.495 736.734C342.051 736.742 341.722 736.903 341.507 737.218C341.299 737.526 341.192 737.909 341.185 738.367V739.184ZM349.091 748.078C349.091 748.529 349.195 748.912 349.402 749.228C349.61 749.535 349.943 749.689 350.401 749.689C350.845 749.689 351.168 749.539 351.368 749.238C351.576 748.93 351.683 748.544 351.69 748.078V747.262C351.683 746.796 351.579 746.41 351.379 746.102C351.178 745.794 350.853 745.643 350.401 745.65C349.95 745.643 349.617 745.797 349.402 746.112C349.195 746.42 349.091 746.803 349.091 747.262V748.078ZM367.841 736.82C367.841 737.622 368.016 738.403 368.367 739.162C368.718 739.914 369.237 740.591 369.925 741.192C370.612 741.787 371.443 742.249 372.417 742.578L371.214 744.426C370.154 744.082 369.237 743.563 368.464 742.868C367.698 742.174 367.096 741.357 366.659 740.419C366.222 741.465 365.599 742.37 364.79 743.137C363.981 743.903 363.014 744.476 361.89 744.855L360.665 742.965C361.668 742.635 362.523 742.152 363.232 741.515C363.949 740.877 364.489 740.154 364.854 739.345C365.227 738.528 365.413 737.694 365.413 736.842V736.584H361.374V734.672H371.858V736.584H367.841V736.82ZM363.737 745.994H376.972V752.912H374.587V747.906H363.737V745.994ZM371.278 738.303H374.587V733.49H376.972V745.07H374.587V740.258H371.278V738.303ZM395.649 744.275H393.243V733.512H395.649V744.275ZM380.46 734.393H389.419V740H382.845V741.955C384.743 741.941 386.307 741.898 387.539 741.826C388.771 741.755 390.028 741.611 391.31 741.396L391.61 743.33C390.178 743.566 388.764 743.724 387.367 743.803C385.978 743.874 384.241 743.91 382.157 743.91H380.503V738.174H387.056V736.326H380.46V734.393ZM382.78 745.135H385.165V747.025H393.265V745.135H395.649V752.676H382.78V745.135ZM393.265 750.742V748.873H385.165V750.742H393.265Z" fill="#5B5B5B"/>
<path d="M955.847 747.199L942.426 752.895V748.729L951.206 745.406V745.222L942.426 741.899V737.733L955.847 743.429V747.199ZM972.724 747.199L959.303 752.895V748.729L968.083 745.406V745.222L959.303 741.899V737.733L972.724 743.429V747.199ZM989.601 747.199L976.18 752.895V748.729L984.96 745.406V745.222L976.18 741.899V737.733L989.601 743.429V747.199Z" fill="#00C914"/>
<line x1="32" y1="811.5" x2="1024" y2="811.5" stroke="#A2A2A2"/>
<path d="M48.0003 883.333C55.3641 883.333 61.3337 877.364 61.3337 870C61.3337 862.636 55.3641 856.667 48.0003 856.667C40.6365 856.667 34.667 862.636 34.667 870C34.667 877.364 40.6365 883.333 48.0003 883.333Z" stroke="#A2A2A2" stroke-width="2" stroke-linecap="round" stroke-linejoin="round"/>
<path d="M81.8447 858.985C85.5493 858.985 88.3706 861.332 88.3838 864.575C88.3706 867.792 85.5493 870.125 81.8447 870.139C78.0874 870.125 75.2661 867.792 75.2793 864.575C75.2661 861.332 78.0874 858.985 81.8447 858.985ZM78.8916 874.199V871.299H95.292V878.102H82.6621V879.314H95.8721V882.268H78.9707V875.359H91.4951V874.199H78.8916ZM78.9443 864.575C78.9312 866.197 80.1704 867.067 81.8447 867.08C83.4927 867.067 84.7056 866.197 84.6924 864.575C84.7056 862.954 83.4927 862.083 81.8447 862.07C80.1704 862.083 78.9312 862.954 78.9443 864.575ZM91.4951 870.376V858.326H95.292V870.376H91.4951ZM116.572 858.353V864.997H119.71V868.108H116.572V876.177H112.775V858.353H116.572ZM97.9307 872.406V860.066H101.675V863.389H105.973V860.066H109.77V872.406H97.9307ZM100.699 882.136V874.331H104.496V879.104H117.363V882.136H100.699ZM101.675 869.453H105.973V866.289H101.675V869.453ZM140.12 858.326V870.455H136.35V868.794H131.129V865.92H136.35V864.074H131.353C129.863 867.634 126.501 869.875 121.162 870.982L119.896 867.924C125.289 866.909 127.596 864.799 128.018 862.202H121.294V859.196H132.236C132.236 859.908 132.197 860.581 132.104 861.227H136.35V858.326H140.12ZM123.904 874.199V871.246H140.12V878.102H127.728V879.288H140.568V882.294H123.957V875.307H136.323V874.199H123.904ZM162.956 858.326V882.531H159.37V858.326H162.956ZM141.414 875.254C145.026 873.013 146.147 868.688 146.134 864.681V863.705H142.39V860.673H153.227V863.705H149.799V864.681C149.786 868.649 150.84 872.67 154.439 874.727L152.251 877.495C150.155 876.282 148.81 874.278 148.006 871.866C147.188 874.502 145.804 876.744 143.682 878.049L141.414 875.254ZM151.539 869.532V866.5H154.439V858.669H157.973V881.45H154.439V869.532H151.539Z" fill="black"/>
<line x1="32" y1="927.5" x2="1024" y2="927.5" stroke="#A2A2A2"/>
<path d="M50.4781 986.633H47.8766V984.781H42.7672V982.789H47.8766V980.703H43.0367C41.7398 983.891 38.7047 986.023 33.9313 987.102L33.0172 984.969C35.4469 984.461 37.3102 983.688 38.607 982.648C39.9117 981.609 40.6578 980.367 40.8453 978.922H34.1891V976.812H43.7516C43.7516 977.43 43.7008 978.062 43.5992 978.711H47.8766V975.898H50.4781V986.633ZM36.5328 987.453H50.4781V993.031H39.1578V994.789H51.0406V996.875H36.5563V991.086H47.8766V989.516H36.5328V987.453ZM71.0125 997.086H68.5281V975.898H71.0125V997.086ZM52.4031 991.062C53.3875 990.461 54.2078 989.668 54.8641 988.684C55.5281 987.691 56.0164 986.598 56.3289 985.402C56.6492 984.199 56.8094 982.961 56.8094 981.688V980.281H53.1297V978.172H62.7391V980.281H59.3172V981.688C59.3172 982.922 59.4695 984.109 59.7742 985.25C60.0789 986.391 60.5516 987.426 61.1922 988.355C61.8406 989.285 62.6531 990.031 63.6297 990.594L62.0828 992.516C61.1297 991.953 60.3211 991.195 59.657 990.242C58.993 989.281 58.4695 988.176 58.0867 986.926C57.6961 988.285 57.157 989.488 56.4695 990.535C55.7898 991.582 54.9656 992.406 53.9969 993.008L52.4031 991.062ZM61.1922 983.281H64.2391V976.297H66.7V996.055H64.2391V985.391H61.1922V983.281ZM75 997.555H72.375L77.8594 977.234H80.4609L75 997.555ZM97.4328 980.633H100.409V982.742H97.4328V987.406H94.8313V975.852H97.4328V980.633ZM80.7453 977.609H85.7375V975.734H88.3391V977.609H93.3078V979.602H80.7453V977.609ZM81.8234 983.727C81.8234 983.031 82.0383 982.422 82.468 981.898C82.8977 981.375 83.5031 980.973 84.2844 980.691C85.0734 980.402 85.9875 980.258 87.0266 980.258C88.0656 980.258 88.9758 980.402 89.757 980.691C90.5383 980.973 91.1398 981.375 91.5617 981.898C91.9914 982.422 92.2063 983.031 92.2063 983.727C92.2063 984.438 91.9914 985.055 91.5617 985.578C91.1398 986.102 90.5383 986.504 89.757 986.785C88.9836 987.059 88.0734 987.195 87.0266 987.195C85.9875 987.195 85.0734 987.059 84.2844 986.785C83.5031 986.504 82.8977 986.102 82.468 985.578C82.0383 985.055 81.8234 984.438 81.8234 983.727ZM83.5813 988.344H97.4328V993.453H86.1828V994.953H98.0891V996.898H83.6047V991.648H94.8313V990.242H83.5813V988.344ZM84.3547 983.727C84.3469 984.234 84.5813 984.625 85.0578 984.898C85.5344 985.172 86.1906 985.312 87.0266 985.32C87.8625 985.312 88.5188 985.172 88.9953 984.898C89.4797 984.625 89.7219 984.234 89.7219 983.727C89.7219 983.234 89.4836 982.848 89.007 982.566C88.5305 982.277 87.8859 982.133 87.0734 982.133C86.2297 982.133 85.5617 982.273 85.0695 982.555C84.5852 982.828 84.3469 983.219 84.3547 983.727ZM118.412 991.227H115.787V975.922H118.412V991.227ZM101.139 982.602C101.139 981.594 101.389 980.688 101.889 979.883C102.397 979.078 103.084 978.449 103.952 977.996C104.827 977.535 105.795 977.305 106.858 977.305C107.92 977.305 108.885 977.535 109.752 977.996C110.627 978.449 111.311 979.078 111.803 979.883C112.303 980.688 112.553 981.594 112.553 982.602C112.553 983.625 112.303 984.543 111.803 985.355C111.311 986.16 110.627 986.789 109.752 987.242C108.885 987.695 107.92 987.922 106.858 987.922C105.795 987.922 104.827 987.695 103.952 987.242C103.084 986.789 102.397 986.16 101.889 985.355C101.389 984.543 101.139 983.625 101.139 982.602ZM103.694 982.602C103.694 983.211 103.827 983.746 104.092 984.207C104.366 984.668 104.741 985.023 105.217 985.273C105.702 985.523 106.248 985.648 106.858 985.648C107.452 985.648 107.987 985.523 108.463 985.273C108.94 985.023 109.315 984.668 109.588 984.207C109.862 983.746 109.998 983.211 109.998 982.602C109.998 982.008 109.862 981.48 109.588 981.02C109.315 980.559 108.936 980.203 108.452 979.953C107.975 979.703 107.444 979.578 106.858 979.578C106.256 979.578 105.713 979.703 105.229 979.953C104.745 980.203 104.366 980.559 104.092 981.02C103.827 981.48 103.694 982.008 103.694 982.602ZM104.397 989.68H107.022V994.555H118.998V996.664H104.397V989.68ZM139.088 997.086H136.58V975.898H139.088V997.086ZM120.759 979.273H124.603V976.438H127.205V979.273H131.002V981.359H120.759V979.273ZM121.345 987.5C121.345 986.531 121.537 985.664 121.92 984.898C122.31 984.133 122.845 983.535 123.525 983.105C124.213 982.676 124.986 982.461 125.845 982.461C126.713 982.461 127.49 982.676 128.177 983.105C128.865 983.535 129.4 984.133 129.783 984.898C130.173 985.656 130.369 986.523 130.369 987.5V987.758H132.548V984.992H129.994V982.859H132.548V976.297H134.963V996.102H132.548V989.844H129.912C129.552 990.68 129.013 991.336 128.295 991.812C127.576 992.289 126.759 992.523 125.845 992.516C124.986 992.516 124.213 992.305 123.525 991.883C122.845 991.453 122.31 990.859 121.92 990.102C121.537 989.336 121.345 988.469 121.345 987.5ZM123.619 987.465C123.619 988.043 123.709 988.547 123.888 988.977C124.076 989.398 124.338 989.727 124.673 989.961C125.009 990.195 125.4 990.312 125.845 990.312C126.283 990.312 126.673 990.199 127.017 989.973C127.361 989.738 127.627 989.41 127.814 988.988C128.009 988.559 128.111 988.062 128.119 987.5C128.111 986.922 128.009 986.422 127.814 986C127.627 985.578 127.361 985.258 127.017 985.039C126.681 984.812 126.291 984.695 125.845 984.688C125.408 984.695 125.021 984.812 124.685 985.039C124.349 985.258 124.088 985.574 123.9 985.988C123.713 986.402 123.619 986.895 123.619 987.465ZM149.966 979.461H144.153V981.523H149.755V983.516H144.153V985.742C145.52 985.727 146.688 985.684 147.657 985.613C148.634 985.543 149.614 985.414 150.598 985.227L150.88 987.336C149.755 987.547 148.657 987.691 147.587 987.77C146.516 987.84 145.188 987.875 143.602 987.875H143.052H141.645V977.375H149.966V979.461ZM144.458 989.75H158.966V997.086H156.364V991.859H144.458V989.75ZM151.841 976.32H154.278V981.219H156.481V975.922H158.966V988.812H156.481V983.305H154.278V988.648H151.841V976.32ZM182.597 982.109H185.55V984.266H182.597V991.391H179.995V975.898H182.597V982.109ZM166.12 982.648C166.12 981.625 166.37 980.707 166.87 979.895C167.37 979.082 168.054 978.449 168.921 977.996C169.796 977.535 170.769 977.305 171.839 977.305C172.902 977.305 173.866 977.535 174.734 977.996C175.609 978.449 176.296 979.082 176.796 979.895C177.296 980.707 177.55 981.625 177.558 982.648C177.55 983.656 177.292 984.566 176.784 985.379C176.284 986.191 175.601 986.828 174.734 987.289C173.866 987.742 172.902 987.969 171.839 987.969C170.777 987.969 169.808 987.742 168.933 987.289C168.058 986.828 167.37 986.191 166.87 985.379C166.37 984.566 166.12 983.656 166.12 982.648ZM168.675 982.648C168.675 983.242 168.812 983.77 169.085 984.23C169.366 984.691 169.749 985.047 170.234 985.297C170.718 985.547 171.253 985.672 171.839 985.672C172.433 985.672 172.968 985.547 173.445 985.297C173.929 985.047 174.308 984.695 174.581 984.242C174.862 983.781 175.003 983.25 175.003 982.648C175.003 982.039 174.862 981.504 174.581 981.043C174.308 980.574 173.929 980.215 173.445 979.965C172.968 979.707 172.433 979.578 171.839 979.578C171.245 979.578 170.706 979.707 170.222 979.965C169.745 980.215 169.366 980.574 169.085 981.043C168.812 981.504 168.675 982.039 168.675 982.648ZM169.027 989.773H171.628V994.555H183.441V996.664H169.027V989.773ZM204.116 997.086H201.608V986.375H199.264V996.008H196.827V976.297H199.264V984.242H201.608V975.898H204.116V997.086ZM186.842 978.336H189.467V989.516C191.538 989.477 193.553 989.266 195.514 988.883L195.772 991.156C193.288 991.594 190.78 991.812 188.248 991.812H186.842V978.336Z" fill="#5B5B5B"/>
<path d="M1004 994L1012 986L1004 978" stroke="#A2A2A2" stroke-width="2" stroke-linecap="round" stroke-linejoin="round"/>
<path d="M50.8438 1039.45H33.1191V1037.49H50.8438V1039.45ZM35.1816 1044.32C35.1816 1043.58 35.4502 1042.94 35.9873 1042.41C36.5316 1041.88 37.3086 1041.48 38.3184 1041.21C39.3353 1040.94 40.5456 1040.8 41.9492 1040.8C43.3385 1040.8 44.5381 1040.94 45.5479 1041.21C46.5576 1041.48 47.3311 1041.88 47.8682 1042.41C48.4053 1042.94 48.6738 1043.58 48.6738 1044.32C48.6738 1045.08 48.4053 1045.73 47.8682 1046.26C47.3311 1046.79 46.5576 1047.2 45.5479 1047.47C44.5452 1047.75 43.3457 1047.89 41.9492 1047.89C40.5456 1047.89 39.3353 1047.75 38.3184 1047.47C37.3086 1047.2 36.5316 1046.79 35.9873 1046.26C35.4502 1045.72 35.1816 1045.08 35.1816 1044.32ZM35.2891 1029.11H48.6953V1031.05H37.6738V1034.05H48.8027V1035.97H35.2891V1029.11ZM37.6094 1044.32C37.6022 1044.9 37.9674 1045.33 38.7051 1045.61C39.4427 1045.9 40.5241 1046.04 41.9492 1046.04C43.3529 1046.04 44.4235 1045.9 45.1611 1045.61C45.9059 1045.33 46.2819 1044.9 46.2891 1044.32C46.2747 1043.77 45.8952 1043.35 45.1504 1043.07C44.4056 1042.77 43.3385 1042.63 41.9492 1042.63C40.5384 1042.63 39.4606 1042.77 38.7158 1043.07C37.971 1043.35 37.6022 1043.77 37.6094 1044.32ZM69.6074 1040.93H51.8613V1039H59.5527V1037.38H54.1172V1032.23H65.0312V1030.79H54.0527V1028.92H67.416V1033.97H56.4805V1035.52H67.8027V1037.38H61.916V1039H69.6074V1040.93ZM53.8379 1042.15H67.5234V1047.78H65.1172V1044.04H53.8379V1042.15ZM85.7148 1030.4C85.7077 1032.54 85.457 1034.46 84.9629 1036.17C84.4759 1037.88 83.5879 1039.47 82.2988 1040.94C81.0169 1042.42 79.2337 1043.72 76.9492 1044.86L75.6387 1043.06C77.2858 1042.25 78.6357 1041.36 79.6885 1040.38C80.7412 1039.41 81.5576 1038.33 82.1377 1037.16L76.0898 1037.73L75.7891 1035.67L82.8574 1035.23C83.1081 1034.31 83.2692 1033.35 83.3408 1032.34H76.7988V1030.4H85.7148ZM88.4434 1028.49H90.8281V1036.1H93.707V1038.05H90.8281V1047.87H88.4434V1028.49ZM110.15 1039.51H96.5293V1030.19H110V1032.12H98.8926V1037.6H110.15V1039.51ZM94.3809 1043.46H112.127V1045.44H94.3809V1043.46ZM128.871 1035.88H115.422V1029.2H117.785V1033.99H128.871V1035.88ZM113.123 1038.14H130.869V1040.03H113.123V1038.14ZM115.25 1041.75H117.635V1045.53H129V1047.46H115.25V1041.75ZM153.143 1038.44H150.758V1033.52H146.891V1031.61H150.758V1028.49H153.143V1038.44ZM136.771 1036.63C137.788 1036.32 138.651 1035.87 139.36 1035.28C140.076 1034.68 140.614 1033.98 140.972 1033.2C141.337 1032.4 141.52 1031.56 141.52 1030.68V1029.13H143.926V1030.68C143.919 1031.49 144.09 1032.26 144.441 1033C144.792 1033.74 145.312 1034.39 145.999 1034.97C146.687 1035.53 147.521 1035.97 148.502 1036.27L147.234 1038.12C146.196 1037.77 145.297 1037.27 144.538 1036.61C143.779 1035.95 143.181 1035.18 142.744 1034.28C142.314 1035.28 141.699 1036.15 140.896 1036.89C140.102 1037.62 139.142 1038.17 138.018 1038.54L136.771 1036.63ZM140.359 1039.28H153.143V1044.3H142.723V1045.79H153.766V1047.68H140.381V1042.52H150.779V1041.14H140.359V1039.28ZM171.906 1040.03H169.521V1035.28H166.213V1033.32H169.521V1028.49H171.906V1040.03ZM155.578 1038.09C156.588 1037.75 157.451 1037.25 158.167 1036.6C158.89 1035.95 159.435 1035.21 159.8 1034.39C160.165 1033.56 160.348 1032.72 160.348 1031.84V1031.69H156.309V1029.76H166.793V1031.69H162.775V1031.82C162.775 1032.62 162.951 1033.4 163.302 1034.16C163.653 1034.91 164.172 1035.59 164.859 1036.19C165.547 1036.79 166.378 1037.25 167.352 1037.58L166.148 1039.47C165.096 1039.11 164.186 1038.58 163.42 1037.89C162.654 1037.19 162.049 1036.37 161.604 1035.43C161.168 1036.49 160.545 1037.41 159.735 1038.2C158.926 1038.99 157.956 1039.58 156.824 1039.98L155.578 1038.09ZM158.736 1044.22C158.729 1043.45 158.991 1042.79 159.521 1042.24C160.05 1041.68 160.81 1041.26 161.798 1040.96C162.793 1040.67 163.971 1040.52 165.332 1040.52C166.7 1040.52 167.882 1040.67 168.877 1040.96C169.872 1041.26 170.635 1041.68 171.165 1042.23C171.702 1042.78 171.971 1043.44 171.971 1044.22C171.971 1044.99 171.702 1045.65 171.165 1046.2C170.635 1046.76 169.872 1047.18 168.877 1047.47C167.882 1047.77 166.7 1047.91 165.332 1047.91C163.971 1047.91 162.793 1047.77 161.798 1047.47C160.81 1047.18 160.05 1046.75 159.521 1046.19C158.991 1045.64 158.729 1044.98 158.736 1044.22ZM161.1 1044.22C161.092 1044.81 161.451 1045.27 162.174 1045.59C162.904 1045.91 163.936 1046.06 165.268 1046.06C166.657 1046.06 167.724 1045.91 168.469 1045.59C169.214 1045.28 169.586 1044.82 169.586 1044.22C169.586 1043.62 169.217 1043.15 168.479 1042.83C167.749 1042.51 166.7 1042.35 165.332 1042.35C163.979 1042.35 162.933 1042.51 162.195 1042.83C161.458 1043.15 161.092 1043.62 161.1 1044.22ZM175.674 1045.72V1043.04L182.979 1039.89V1039.76L175.674 1036.61V1033.93L186.051 1038.74V1040.91L175.674 1045.72ZM198.434 1030.4C198.426 1032.54 198.176 1034.46 197.682 1036.17C197.195 1037.88 196.307 1039.47 195.018 1040.94C193.736 1042.42 191.952 1043.72 189.668 1044.86L188.357 1043.06C190.005 1042.25 191.354 1041.36 192.407 1040.38C193.46 1039.41 194.276 1038.33 194.856 1037.16L188.809 1037.73L188.508 1035.67L195.576 1035.23C195.827 1034.31 195.988 1033.35 196.06 1032.34H189.518V1030.4H198.434ZM201.162 1028.49H203.547V1036.1H206.426V1038.05H203.547V1047.87H201.162V1028.49ZM222.869 1039.51H209.248V1030.19H222.719V1032.12H211.611V1037.6H222.869V1039.51ZM207.1 1043.46H224.846V1045.44H207.1V1043.46ZM242.127 1040.03H239.742V1035.28H236.434V1033.32H239.742V1028.49H242.127V1040.03ZM225.799 1038.09C226.809 1037.75 227.672 1037.25 228.388 1036.6C229.111 1035.95 229.655 1035.21 230.021 1034.39C230.386 1033.56 230.568 1032.72 230.568 1031.84V1031.69H226.529V1029.76H237.014V1031.69H232.996V1031.82C232.996 1032.62 233.172 1033.4 233.522 1034.16C233.873 1034.91 234.393 1035.59 235.08 1036.19C235.768 1036.79 236.598 1037.25 237.572 1037.58L236.369 1039.47C235.316 1039.11 234.407 1038.58 233.641 1037.89C232.874 1037.19 232.269 1036.37 231.825 1035.43C231.388 1036.49 230.765 1037.41 229.956 1038.2C229.147 1038.99 228.176 1039.58 227.045 1039.98L225.799 1038.09ZM228.957 1044.22C228.95 1043.45 229.211 1042.79 229.741 1042.24C230.271 1041.68 231.03 1041.26 232.019 1040.96C233.014 1040.67 234.192 1040.52 235.553 1040.52C236.921 1040.52 238.102 1040.67 239.098 1040.96C240.093 1041.26 240.856 1041.68 241.386 1042.23C241.923 1042.78 242.191 1043.44 242.191 1044.22C242.191 1044.99 241.923 1045.65 241.386 1046.2C240.856 1046.76 240.093 1047.18 239.098 1047.47C238.102 1047.77 236.921 1047.91 235.553 1047.91C234.192 1047.91 233.014 1047.77 232.019 1047.47C231.03 1047.18 230.271 1046.75 229.741 1046.19C229.211 1045.64 228.95 1044.98 228.957 1044.22ZM231.32 1044.22C231.313 1044.81 231.671 1045.27 232.395 1045.59C233.125 1045.91 234.156 1046.06 235.488 1046.06C236.878 1046.06 237.945 1045.91 238.689 1045.59C239.434 1045.28 239.807 1044.82 239.807 1044.22C239.807 1043.62 239.438 1043.15 238.7 1042.83C237.97 1042.51 236.921 1042.35 235.553 1042.35C234.199 1042.35 233.154 1042.51 232.416 1042.83C231.678 1043.15 231.313 1043.62 231.32 1044.22ZM262.373 1045.57H244.627V1043.62H252.275V1039.83H246.582V1029.78H248.967V1032.96H257.969V1029.78H260.354V1039.83H254.639V1043.62H262.373V1045.57ZM257.969 1037.9V1034.87H248.967V1037.9H257.969ZM285.119 1047.91H282.82V1028.49H285.119V1047.91ZM268.555 1036.89C268.555 1035.48 268.727 1034.26 269.07 1033.22C269.414 1032.17 269.901 1031.37 270.531 1030.81C271.169 1030.25 271.906 1029.97 272.744 1029.97C273.525 1029.97 274.216 1030.21 274.817 1030.67C275.426 1031.14 275.913 1031.81 276.278 1032.68C276.651 1033.55 276.883 1034.59 276.977 1035.79H278.846V1028.83H281.123V1046.97H278.846V1037.73H276.998C276.926 1038.98 276.704 1040.07 276.332 1040.99C275.967 1041.91 275.476 1042.61 274.86 1043.1C274.244 1043.59 273.539 1043.83 272.744 1043.83C271.906 1043.83 271.169 1043.55 270.531 1042.99C269.901 1042.43 269.414 1041.63 269.07 1040.59C268.727 1039.53 268.555 1038.3 268.555 1036.89ZM270.768 1036.96C270.768 1038.44 270.939 1039.58 271.283 1040.37C271.634 1041.17 272.121 1041.56 272.744 1041.55C273.396 1041.56 273.901 1041.16 274.259 1040.36C274.617 1039.56 274.799 1038.4 274.807 1036.89C274.799 1035.39 274.617 1034.23 274.259 1033.43C273.901 1032.62 273.396 1032.22 272.744 1032.23C272.114 1032.22 271.627 1032.63 271.283 1033.44C270.939 1034.26 270.768 1035.43 270.768 1036.96ZM294.301 1033.15C294.294 1034.37 294.48 1035.54 294.859 1036.68C295.239 1037.81 295.79 1038.81 296.514 1039.69C297.244 1040.57 298.111 1041.22 299.113 1041.66L297.674 1043.57C296.6 1043.05 295.676 1042.3 294.902 1041.32C294.129 1040.34 293.531 1039.19 293.108 1037.89C292.672 1039.27 292.056 1040.49 291.261 1041.54C290.466 1042.59 289.524 1043.39 288.436 1043.94L286.932 1042C287.956 1041.52 288.84 1040.82 289.585 1039.9C290.33 1038.97 290.896 1037.93 291.282 1036.75C291.669 1035.58 291.866 1034.38 291.873 1033.15V1030.06H294.301V1033.15ZM296.965 1034.76H301.047V1028.49H303.41V1047.93H301.047V1036.7H296.965V1034.76ZM327.123 1042.84H324.738V1037.96H320.828V1039.68H311.74V1029.78H314.125V1032.92H318.465V1029.78H320.828V1031.86H324.738V1028.51H327.123V1042.84ZM318.465 1037.79V1034.76H314.125V1037.79H318.465ZM314.318 1041.42H316.746V1045.59H327.553V1047.53H314.318V1041.42ZM324.738 1036.03V1033.8H320.828V1036.03H324.738ZM345.887 1039.86H343.502V1037.71H338.883V1035.77H343.502V1033.69H339.065C338.457 1035.22 337.454 1036.53 336.058 1037.61C334.661 1038.68 332.903 1039.52 330.783 1040.11L329.816 1038.22C332.051 1037.62 333.784 1036.77 335.016 1035.67C336.255 1034.56 336.967 1033.27 337.153 1031.8H330.848V1029.87H339.764C339.764 1030.54 339.71 1031.18 339.603 1031.8H343.502V1028.51H345.887V1039.86ZM332.867 1043.94C332.867 1043.15 333.139 1042.47 333.684 1041.89C334.228 1041.31 334.994 1040.86 335.982 1040.54C336.978 1040.23 338.138 1040.07 339.463 1040.07C340.766 1040.07 341.912 1040.23 342.9 1040.54C343.889 1040.86 344.655 1041.31 345.199 1041.89C345.743 1042.47 346.016 1043.15 346.016 1043.94C346.016 1044.73 345.743 1045.41 345.199 1046C344.655 1046.58 343.889 1047.02 342.9 1047.33C341.912 1047.65 340.766 1047.8 339.463 1047.8C338.145 1047.8 336.989 1047.65 335.993 1047.33C334.998 1047.02 334.228 1046.58 333.684 1046C333.139 1045.41 332.867 1044.73 332.867 1043.94ZM335.252 1043.94C335.252 1044.57 335.624 1045.05 336.369 1045.4C337.114 1045.74 338.145 1045.91 339.463 1045.91C340.759 1045.91 341.776 1045.74 342.514 1045.4C343.251 1045.05 343.624 1044.57 343.631 1043.94C343.624 1043.29 343.251 1042.8 342.514 1042.46C341.783 1042.11 340.766 1041.94 339.463 1041.94C338.145 1041.94 337.114 1042.11 336.369 1042.46C335.624 1042.8 335.252 1043.29 335.252 1043.94ZM368.568 1036.07H371.447V1038.07H368.568V1047.87H366.184V1028.49H368.568V1036.07ZM353.25 1042.56C355.62 1041.38 357.447 1039.96 358.729 1038.3C360.01 1036.63 360.77 1034.69 361.006 1032.49H354.303V1030.51H363.434C363.419 1036.88 360.476 1041.52 354.604 1044.41L353.25 1042.56ZM387.826 1035.47H374.42V1028.83H376.805V1033.54H387.826V1035.47ZM372.121 1037.34H389.846V1039.28H372.121V1037.34ZM374.184 1044.26C374.184 1043.51 374.452 1042.86 374.989 1042.33C375.534 1041.79 376.311 1041.38 377.32 1041.1C378.337 1040.82 379.548 1040.67 380.951 1040.67C382.348 1040.67 383.547 1040.82 384.55 1041.1C385.56 1041.38 386.333 1041.79 386.87 1042.33C387.407 1042.86 387.676 1043.5 387.676 1044.26C387.676 1045.01 387.407 1045.65 386.87 1046.18C386.333 1046.72 385.56 1047.13 384.55 1047.41C383.547 1047.69 382.348 1047.83 380.951 1047.83C379.548 1047.83 378.337 1047.69 377.32 1047.41C376.311 1047.13 375.534 1046.72 374.989 1046.18C374.452 1045.65 374.184 1045.01 374.184 1044.26ZM376.611 1044.26C376.604 1044.82 376.973 1045.25 377.718 1045.55C378.463 1045.84 379.54 1045.99 380.951 1046C382.34 1045.99 383.408 1045.84 384.152 1045.55C384.904 1045.25 385.284 1044.82 385.291 1044.26C385.284 1043.69 384.908 1043.27 384.163 1042.98C383.425 1042.69 382.355 1042.55 380.951 1042.54C379.526 1042.55 378.445 1042.69 377.707 1042.98C376.969 1043.27 376.604 1043.69 376.611 1044.26ZM406.203 1033.28H408.91V1035.26H406.203V1039.83H403.818V1028.49H406.203V1033.28ZM390.906 1030.29H395.482V1028.34H397.867V1030.29H402.422V1032.21H390.906V1030.29ZM391.895 1036.29C391.895 1035.61 392.095 1035.01 392.496 1034.5C392.897 1033.98 393.456 1033.58 394.172 1033.3C394.895 1033.02 395.726 1032.87 396.664 1032.87C397.588 1032.87 398.408 1033.02 399.124 1033.3C399.847 1033.58 400.41 1033.98 400.811 1034.5C401.212 1035.01 401.412 1035.61 401.412 1036.29C401.412 1036.97 401.212 1037.57 400.811 1038.08C400.41 1038.6 399.847 1039 399.124 1039.29C398.408 1039.57 397.588 1039.71 396.664 1039.71C395.726 1039.71 394.895 1039.57 394.172 1039.29C393.456 1039.01 392.897 1038.61 392.496 1038.09C392.095 1037.57 391.895 1036.97 391.895 1036.29ZM393.656 1040.61H396.02V1042.28H403.818V1040.61H406.203V1047.68H393.656V1040.61ZM394.215 1036.29C394.208 1036.8 394.426 1037.21 394.87 1037.5C395.321 1037.8 395.919 1037.94 396.664 1037.94C397.409 1037.94 398.007 1037.8 398.458 1037.5C398.909 1037.21 399.135 1036.8 399.135 1036.29C399.135 1035.78 398.909 1035.38 398.458 1035.09C398.007 1034.79 397.409 1034.63 396.664 1034.63C395.919 1034.63 395.321 1034.79 394.87 1035.09C394.426 1035.38 394.208 1035.78 394.215 1036.29ZM403.818 1045.79V1044.13H396.02V1045.79H403.818ZM425.848 1047.91H423.484V1028.49H425.848V1047.91ZM410.766 1030.38H413.129V1040.99C416.187 1040.94 419.059 1040.65 421.744 1040.11L422.045 1042.11C419.023 1042.74 415.822 1043.05 412.441 1043.04H410.766V1030.38ZM443.623 1035.86H446.609V1037.81H443.623V1047.93H441.238V1028.49H443.623V1035.86ZM429.207 1030.34H438.295V1032.27H431.592V1041.19C433.167 1041.18 434.585 1041.13 435.846 1041.04C437.106 1040.94 438.381 1040.79 439.67 1040.56L439.949 1042.58C438.538 1042.83 437.149 1042.99 435.781 1043.07C434.413 1043.15 432.759 1043.19 430.818 1043.19H429.207V1030.34ZM449.539 1046.17C449.238 1046.17 448.959 1046.1 448.701 1045.95C448.443 1045.8 448.239 1045.59 448.089 1045.33C447.938 1045.08 447.863 1044.8 447.863 1044.5C447.863 1044.2 447.938 1043.93 448.089 1043.68C448.239 1043.42 448.443 1043.22 448.701 1043.07C448.959 1042.92 449.238 1042.84 449.539 1042.84C449.833 1042.84 450.105 1042.92 450.355 1043.07C450.613 1043.22 450.817 1043.42 450.968 1043.68C451.118 1043.93 451.193 1044.2 451.193 1044.5C451.193 1044.8 451.118 1045.08 450.968 1045.33C450.817 1045.59 450.613 1045.8 450.355 1045.95C450.105 1046.1 449.833 1046.17 449.539 1046.17Z" fill="#727272"/>
<path d="M136.234 1049.37H262.746V1051.22H136.234V1049.37Z" fill="#727272"/>
<defs>
<filter id="filter0_d_487_2536" x="239" y="417" width="538.5" height="258" filterUnits="userSpaceOnUse" color-interpolation-filters="sRGB">
<feFlood flood-opacity="0" result="BackgroundImageFix"/>
<feColorMatrix in="SourceAlpha" type="matrix" values="0 0 0 0 0 0 0 0 0 0 0 0 0 0 0 0 0 0 127 0" result="hardAlpha"/>
<feOffset/>
<feGaussianBlur stdDeviation="7.5"/>
<feComposite in2="hardAlpha" operator="out"/>
<feColorMatrix type="matrix" values="0 0 0 0 0 0 0 0 0 0 0 0 0 0 0 0 0 0 0.12 0"/>
<feBlend mode="normal" in2="BackgroundImageFix" result="effect1_dropShadow_487_2536"/>
<feBlend mode="normal" in="SourceGraphic" in2="effect1_dropShadow_487_2536" result="shape"/>
</filter>
<filter id="filter1_d_487_2536" x="767.5" y="417" width="538.5" height="258" filterUnits="userSpaceOnUse" color-interpolation-filters="sRGB">
<feFlood flood-opacity="0" result="BackgroundImageFix"/>
<feColorMatrix in="SourceAlpha" type="matrix" values="0 0 0 0 0 0 0 0 0 0 0 0 0 0 0 0 0 0 127 0" result="hardAlpha"/>
<feOffset/>
<feGaussianBlur stdDeviation="7.5"/>
<feComposite in2="hardAlpha" operator="out"/>
<feColorMatrix type="matrix" values="0 0 0 0 0 0 0 0 0 0 0 0 0 0 0 0 0 0 0.12 0"/>
<feBlend mode="normal" in2="BackgroundImageFix" result="effect1_dropShadow_487_2536"/>
<feBlend mode="normal" in="SourceGraphic" in2="effect1_dropShadow_487_2536" result="shape"/>
</filter>
<linearGradient id="paint0_linear_487_2536" x1="308.897" y1="127" x2="451.31" y2="127" gradientUnits="userSpaceOnUse">
<stop stop-color="#00D770"/>
<stop offset="1" stop-color="#003F9E"/>
</linearGradient>
<clipPath id="clip0_487_2536">
<rect width="926" height="256" fill="white" transform="translate(32 418)"/>
</clipPath>
</defs>
</svg>
