<svg width="32" height="32" viewBox="0 0 32 32" fill="none" xmlns="http://www.w3.org/2000/svg">
<path d="M12.1203 12C12.4338 11.1088 13.0525 10.3574 13.8669 9.8788C14.6813 9.40017 15.6389 9.22521 16.5699 9.38491C17.5009 9.54461 18.3454 10.0287 18.9538 10.7513C19.5621 11.474 19.8951 12.3887 19.8937 13.3333C19.8937 16 15.8937 17.3333 15.8937 17.3333M16.0003 22.6666H16.0137M29.3337 16C29.3337 23.3638 23.3641 29.3333 16.0003 29.3333C8.63653 29.3333 2.66699 23.3638 2.66699 16C2.66699 8.63616 8.63653 2.66663 16.0003 2.66663C23.3641 2.66663 29.3337 8.63616 29.3337 16Z" stroke="#A2A2A2" stroke-width="2" stroke-linecap="round" stroke-linejoin="round"/>
</svg>
