<svg width="79" height="34" viewBox="0 0 79 34" fill="none" xmlns="http://www.w3.org/2000/svg">
<rect width="79" height="34" rx="17" fill="url(#paint0_linear_487_2287)"/>
<path d="M12.9427 23V9.68H15.6607L19.5307 16.772L20.8627 19.652H20.9527C20.8087 18.266 20.6107 16.502 20.6107 14.99V9.68H23.1307V23H20.4307L16.5787 15.872L15.2287 13.01H15.1387C15.2647 14.45 15.4627 16.124 15.4627 17.654V23H12.9427ZM26.2091 26.87V12.92H28.3691L28.5491 13.964H28.6211C29.4671 13.244 30.5111 12.668 31.5911 12.668C34.0751 12.668 35.5511 14.702 35.5511 17.798C35.5511 21.254 33.4811 23.252 31.2671 23.252C30.3851 23.252 29.5391 22.856 28.7651 22.154L28.8371 23.81V26.87H26.2091ZM30.6731 21.074C31.8971 21.074 32.8331 20.03 32.8331 17.834C32.8331 15.908 32.2211 14.846 30.8351 14.846C30.1511 14.846 29.5391 15.188 28.8371 15.89V20.318C29.4851 20.876 30.1331 21.074 30.6731 21.074ZM40.031 23.252C38.231 23.252 37.043 21.974 37.043 20.264C37.043 18.104 38.789 16.97 42.839 16.538C42.803 15.548 42.371 14.792 41.129 14.792C40.193 14.792 39.293 15.206 38.357 15.746L37.403 14C38.591 13.262 40.031 12.668 41.615 12.668C44.171 12.668 45.485 14.198 45.485 17.114V23H43.325L43.127 21.92H43.073C42.191 22.676 41.183 23.252 40.031 23.252ZM40.895 21.182C41.651 21.182 42.209 20.822 42.839 20.192V18.158C40.391 18.482 39.563 19.148 39.563 20.048C39.563 20.84 40.121 21.182 40.895 21.182ZM49.0638 27.05C48.4698 27.05 48.0738 26.978 47.6778 26.852L48.1638 24.818C48.3438 24.872 48.6318 24.944 48.8658 24.944C49.8918 24.944 50.4678 24.296 50.7558 23.414L50.9358 22.82L47.0118 12.92H49.6758L51.2778 17.6C51.5838 18.5 51.8358 19.472 52.1238 20.444H52.2138C52.4478 19.508 52.6998 18.536 52.9338 17.6L54.3198 12.92H56.8578L53.2758 23.306C52.3938 25.682 51.3138 27.05 49.0638 27.05ZM61.4157 21.038V17.204H57.7797V15.332H61.4157V11.498H63.3777V15.332H67.0137V17.204H63.3777V21.038H61.4157Z" fill="white"/>
<defs>
<linearGradient id="paint0_linear_487_2287" x1="15.8908" y1="17" x2="149.828" y2="17" gradientUnits="userSpaceOnUse">
<stop stop-color="#00D770"/>
<stop offset="1" stop-color="#003F9E"/>
</linearGradient>
</defs>
</svg>
