<svg width="84" height="34" viewBox="0 0 84 34" fill="none" xmlns="http://www.w3.org/2000/svg">
<rect width="84" height="34" rx="17" fill="url(#paint0_linear_487_2523)"/>
<path d="M12.9604 23.5V21.358H15.8224V12.934H13.4104V11.296C14.7424 11.044 15.6604 10.702 16.5064 10.18H18.4684V21.358H20.9704V23.5H12.9604ZM25.9 18.37C23.992 18.37 22.66 16.804 22.66 14.122C22.66 11.458 23.992 9.928 25.9 9.928C27.808 9.928 29.158 11.458 29.158 14.122C29.158 16.804 27.808 18.37 25.9 18.37ZM25.9 16.876C26.674 16.876 27.286 16.084 27.286 14.122C27.286 12.16 26.674 11.422 25.9 11.422C25.126 11.422 24.532 12.16 24.532 14.122C24.532 16.084 25.126 16.876 25.9 16.876ZM26.35 23.752L33.586 9.928H35.152L27.898 23.752H26.35ZM35.584 23.752C33.694 23.752 32.344 22.168 32.344 19.504C32.344 16.822 33.694 15.292 35.584 15.292C37.474 15.292 38.842 16.822 38.842 19.504C38.842 22.168 37.474 23.752 35.584 23.752ZM35.584 22.24C36.358 22.24 36.97 21.466 36.97 19.504C36.97 17.542 36.358 16.786 35.584 16.786C34.81 16.786 34.198 17.542 34.198 19.504C34.198 21.466 34.81 22.24 35.584 22.24ZM50.1624 16.03L49.0104 17.884C47.1924 17.29 45.9504 16.102 45.2484 14.626C44.5104 16.246 43.2144 17.578 41.2884 18.208L40.0824 16.336C42.7464 15.436 43.9524 13.33 43.9884 11.278H40.7304V9.388H49.6404V11.278H46.4184C46.4544 13.168 47.6064 15.166 50.1624 16.03ZM42.7284 20.962V19.072H54.0324V25.066H51.6564V20.962H42.7284ZM51.6564 8.488H54.0324V18.334H51.6564V14.338H49.2084V12.43H51.6564V8.488ZM66.739 15.076L67.009 16.966C64.543 17.38 62.329 17.434 59.035 17.434H57.577V12.394H62.851V11.116H57.559V9.226H65.191V14.158H59.917V15.526C62.653 15.508 64.579 15.436 66.739 15.076ZM68.143 22.96V21.628H61.825V22.96H68.143ZM68.143 19.81V18.406H70.501V24.85H59.467V18.406H61.825V19.81H68.143ZM68.107 8.47H70.501V17.722H68.107V8.47Z" fill="white"/>
<defs>
<linearGradient id="paint0_linear_487_2523" x1="16.8966" y1="17" x2="159.31" y2="17" gradientUnits="userSpaceOnUse">
<stop stop-color="#00D770"/>
<stop offset="1" stop-color="#003F9E"/>
</linearGradient>
</defs>
</svg>
